<svg xmlns="http://www.w3.org/2000/svg" viewBox="0 0 1600 900" role="img" aria-label="Adventure bike visual">
  <defs>
    <linearGradient id="sky2" x1="0" y1="0" x2="0" y2="1">
      <stop offset="0" stop-color="#0b2a1d"/>
      <stop offset="1" stop-color="#3b6f48"/>
    </linearGradient>
  </defs>
  <rect width="1600" height="900" fill="url(#sky2)"/>
  <path d="M0 610C220 500 500 460 760 530C1040 610 1280 620 1600 520V900H0Z" fill="#7c8f62"/>
  <path d="M0 670C240 560 520 530 820 610C1110 700 1350 700 1600 635V900H0Z" fill="#5f6f4e"/>
  <g transform="translate(760 520)">
    <circle cx="-170" cy="130" r="98" fill="#111827"/>
    <circle cx="170" cy="130" r="98" fill="#111827"/>
    <rect x="-225" y="-15" width="460" height="90" rx="35" fill="#d1d5db"/>
    <rect x="-85" y="-105" width="230" height="85" rx="30" fill="#f8fafc"/>
    <rect x="210" y="0" width="120" height="26" rx="12" fill="#ef4444"/>
  </g>
  <text x="100" y="145" fill="#f8fafc" font-family="Inter,Arial" font-size="66" font-weight="800">Velocity AD-9</text>
  <text x="102" y="202" fill="#dcfce7" font-family="Inter,Arial" font-size="30" font-weight="500">ADVENTURE TOURER</text>
</svg>